<?xml version="1.0" standalone="no"?>
<!DOCTYPE svg PUBLIC "-//W3C//DTD SVG 20010904//EN"
 "http://www.w3.org/TR/2001/REC-SVG-20010904/DTD/svg10.dtd">
<svg version="1.0" xmlns="http://www.w3.org/2000/svg"
 width="130.000000pt" height="130.000000pt" viewBox="0 0 130.000000 130.000000"
 preserveAspectRatio="xMidYMid meet">
<metadata>
Created by potrace 1.14, written by Peter Selinger 2001-2017
</metadata>
<g transform="translate(0.000000,130.000000) scale(0.100000,-0.100000)"
fill="#000000" stroke="none">
<path d="M114 986 c-3 -8 9 -41 25 -75 23 -44 37 -61 51 -61 19 0 20 -7 20
-216 0 -200 1 -215 18 -212 15 3 17 23 20 216 l2 213 28 -3 27 -3 3 -213 c2
-196 4 -213 20 -210 15 3 17 24 20 216 l2 213 28 -3 27 -3 3 -213 c2 -196 4
-213 20 -210 15 3 17 24 20 216 l2 212 25 0 25 0 0 -202 c0 -112 4 -209 9
-217 5 -8 16 -11 25 -8 14 6 16 33 16 217 0 198 1 210 19 210 13 0 26 17 45
61 14 33 26 67 26 75 0 21 -518 21 -526 0z m461 -58 l-13 -33 -184 -3 -185 -2
-11 25 c-7 14 -12 30 -12 35 0 6 83 10 210 10 l209 0 -14 -32z"/>
<path d="M747 993 c-11 -11 -8 -651 3 -658 7 -4 10 108 10 329 0 185 -1 336
-3 336 -2 0 -7 -3 -10 -7z"/>
<path d="M991 978 c-5 -13 -30 -72 -56 -133 -64 -151 -66 -155 -56 -155 5 0
16 18 25 40 l16 40 88 0 89 0 18 -40 c19 -42 41 -57 26 -17 -52 130 -121 282
-130 285 -6 2 -15 -7 -20 -20z m62 -95 l35 -88 -75 -3 c-42 -2 -77 -1 -79 1
-6 5 70 177 77 177 4 0 23 -39 42 -87z"/>
<path d="M939 627 c-97 -65 -90 -226 13 -278 53 -27 129 -22 161 10 12 11 16
21 10 21 -7 0 -14 -4 -18 -10 -3 -5 -22 -14 -43 -19 -52 -15 -103 2 -141 44
-27 31 -31 43 -31 93 0 70 26 117 75 138 47 19 83 18 128 -6 20 -11 37 -16 37
-10 0 18 -59 40 -108 40 -34 0 -59 -7 -83 -23z"/>
<path d="M196 355 c-3 -9 0 -18 7 -21 7 -2 89 -3 182 -2 143 3 170 5 170 18 0
23 -350 28 -359 5z"/>
</g>
</svg>
